<?xml version="1.0" encoding="iso-8859-1"?>
<!-- Generator: Adobe Illustrator 18.1.1, SVG Export Plug-In . SVG Version: 6.00 Build 0)  -->
<svg version="1.1" id="Capa_1" xmlns="http://www.w3.org/2000/svg" xmlns:xlink="http://www.w3.org/1999/xlink" x="0px" y="0px"
	 viewBox="0 0 195.577 195.577" style="enable-background:new 0 0 195.577 195.577;" xml:space="preserve">
<g>
	<g>
		<path style="fill:#010002;" d="M195.248,133.158L172.365,0H22.797L0.322,133.158L0,135.052v2.273v58.253h195.577v-58.253v-2.273
			L195.248,133.158z M26.315,4.159h142.542l22.171,128.996H4.545L26.315,4.159z M191.411,191.411H4.159v-54.087h187.253V191.411z"/>
		<rect x="145.641" y="145.641" style="fill:#010002;" width="36.411" height="8.317"/>
		<path style="fill:#010002;" d="M98.497,53.121c5.361,0,9.727-3.411,9.727-7.605c0-4.198-4.366-7.623-9.727-7.623
			c-5.368,0-9.734,3.425-9.734,7.623C88.766,49.707,93.129,53.121,98.497,53.121z M98.497,41.103c3.407,0,6.299,2.018,6.299,4.409
			c0,2.384-2.892,4.395-6.299,4.395c-3.411,0-6.295-2.011-6.295-4.395C92.202,43.122,95.09,41.103,98.497,41.103z"/>
		<path style="fill:#010002;" d="M139.532,45.709c-5.358,0-9.709,3.411-9.709,7.609c0,1.99,0.991,3.79,2.598,5.146
			c-0.773,0.047-1.589,0.186-2.459,0.469l-8.281,6.091l0.526-4.774l-0.082-0.562c3.275-0.211,5.887-2.387,5.887-5.068
			c0-2.82-2.867-5.114-6.399-5.114c-3.511,0-6.378,2.294-6.378,5.114c0,1.349,0.669,2.566,1.732,3.479
			c-0.408,0.19-0.82,0.412-1.267,0.766l-5.207,5.547l-7.39-9.713l-0.225-0.225c-0.011-0.011-1.496-1.342-4.144-1.342
			c-1.385,0-2.827,0.365-4.409,1.163l-7.544,9.749l-4.259-5.06c-0.24-0.304-0.583-0.601-0.981-0.866
			c1.235-0.931,2.015-2.24,2.015-3.704c0-2.82-2.867-5.111-6.388-5.111c-3.522,0-6.395,2.294-6.395,5.111
			c0,2.534,2.326,4.627,5.365,5.021l-0.064,0.075l0.39,5.962l-7.727-6.238l-0.598-0.322c-0.455-0.136-0.966-0.165-1.457-0.211
			c1.614-1.364,2.627-3.164,2.627-5.164c0-4.198-4.37-7.616-9.734-7.616s-9.724,3.418-9.724,7.616c0,4.194,4.359,7.612,9.724,7.612
			c0.616,0,1.224-0.061,1.807-0.147c-0.1,0.14-0.218,0.251-0.304,0.397l-0.218,0.358l7.394,33.931h60.372l10.017-32.528l0.047-0.408
			l-0.072-0.286c-0.136-0.465-0.415-1.074-0.848-1.675c0.573,0.086,1.156,0.14,1.764,0.14c5.372,0,9.738-3.411,9.738-7.609
			S144.904,45.709,139.532,45.709z M121.609,52.716c1.6,0,2.96,0.877,2.96,1.908c0,1.031-1.36,1.9-2.96,1.9
			c-1.593,0-2.949-0.873-2.949-1.9C118.66,53.593,120.017,52.716,121.609,52.716z M74.204,54.416c0-1.006,1.381-1.9,2.956-1.9
			c1.603,0,2.96,0.873,2.96,1.9c0,1.013-1.389,1.9-2.96,1.9C75.582,56.32,74.204,55.433,74.204,54.416z M59.566,57.942
			c-3.411,0-6.288-2.015-6.288-4.398c0-2.384,2.877-4.406,6.288-4.406c3.418,0,6.302,2.018,6.302,4.406S62.981,57.942,59.566,57.942
			z M126.033,92.481H71.051l-6.56-30.105c0.515-0.523,1.31-0.676,2.283-0.48l13.614,11.009l-0.809-12.154
			c0.064,0.047,0.14,0.111,0.186,0.175l7.151,8.478l9.53-12.515c1.786-0.802,3.579-0.369,4.008-0.118l9.763,12.823l7.884-8.428
			c0.304-0.24,0.422-0.261,0.587-0.211l-1.267,11.374l13.936-10.443c0.573-0.165,1.102-0.251,1.568-0.251
			c1.335,0,1.943,0.748,2.212,1.274L126.033,92.481z M139.532,57.72c-3.403,0-6.281-2.015-6.281-4.398
			c0-2.384,2.877-4.398,6.281-4.398c3.479,0,6.299,1.976,6.299,4.398C145.831,55.744,143.011,57.72,139.532,57.72z"/>
	</g>
</g>
<g>
</g>
<g>
</g>
<g>
</g>
<g>
</g>
<g>
</g>
<g>
</g>
<g>
</g>
<g>
</g>
<g>
</g>
<g>
</g>
<g>
</g>
<g>
</g>
<g>
</g>
<g>
</g>
<g>
</g>
</svg>
